<?xml version="1.0" standalone="no"?>
<!DOCTYPE svg PUBLIC "-//W3C//DTD SVG 20010904//EN"
 "http://www.w3.org/TR/2001/REC-SVG-20010904/DTD/svg10.dtd">
<svg version="1.0" xmlns="http://www.w3.org/2000/svg"
 width="50.000000pt" height="70.000000pt" viewBox="0 0 80.000000 70.000000"
 preserveAspectRatio="xMidYMid meet">

<g transform="translate(-20.000000,37.000000) scale(0.100000,-0.100000)"
fill="#000000" stroke="none">
<path d="M210 390 l0 -180 180 0 180 0 0 180 0 180 -180 0 -180 0 0 -180z m80
25 c0 -69 3 -125 8 -124 4 0 48 8 97 17 l90 17 3 90 2 90 -39 -45 -39 -45 -36
40 -36 40 2 -83 c2 -60 0 -82 -9 -82 -10 0 -13 28 -13 105 l0 105 110 0 110 0
0 -150 0 -150 -85 0 c-84 0 -85 0 -85 25 0 16 -6 25 -15 25 -9 0 -15 -9 -15
-25 0 -23 -3 -25 -50 -25 l-50 0 0 150 0 150 25 0 25 0 0 -125z m144 -26 l26
24 0 -31 c0 -21 -5 -32 -14 -32 -7 0 -28 -3 -45 -6 -30 -6 -31 -6 -31 32 l0
39 20 -25 19 -25 25 24z"/>
</g>
</svg>
