<?xml version="1.0" encoding="UTF-8"?>
<svg xmlns="http://www.w3.org/2000/svg" xmlns:xlink="http://www.w3.org/1999/xlink" width="50px" height="40px" viewBox="0 0 50 40" version="1.1">
<g id="surface1">
<path style=" stroke:none;fill-rule:nonzero;fill:rgb(0%,0%,0%);fill-opacity:1;" d="M 13.394531 19.898438 L 13.394531 29.082031 L 36.351562 29.082031 L 36.351562 10.714844 L 13.394531 10.714844 Z M 18.496094 18.621094 C 18.496094 22.144531 18.6875 25 19.003906 24.949219 C 19.261719 24.949219 22.066406 24.539062 25.191406 24.082031 L 30.933594 23.214844 L 31.121094 18.621094 L 31.25 14.03125 L 28.761719 16.324219 L 26.273438 18.621094 L 23.976562 16.582031 L 21.683594 14.539062 L 21.8125 18.773438 C 21.9375 21.835938 21.8125 22.960938 21.238281 22.960938 C 20.601562 22.960938 20.40625 21.53125 20.40625 17.601562 L 20.40625 12.246094 L 34.4375 12.246094 L 34.4375 27.550781 L 29.019531 27.550781 C 23.660156 27.550781 23.597656 27.550781 23.597656 26.273438 C 23.597656 25.460938 23.214844 25 22.640625 25 C 22.066406 25 21.683594 25.460938 21.683594 26.273438 C 21.683594 27.449219 21.492188 27.550781 18.496094 27.550781 L 15.308594 27.550781 L 15.308594 12.246094 L 18.496094 12.246094 Z M 27.679688 19.949219 L 29.335938 18.726562 L 29.335938 20.304688 C 29.335938 21.378906 29.019531 21.941406 28.441406 21.941406 C 27.996094 21.941406 26.65625 22.089844 25.574219 22.246094 C 23.660156 22.550781 23.597656 22.550781 23.597656 20.613281 L 23.597656 18.621094 L 24.871094 19.898438 L 26.085938 21.175781 Z M 27.679688 19.949219 "/>
</g>
</svg>
